<mxfile host="app.diagrams.net" modified="2020-12-08T11:17:56.378Z" agent="5.0 (Macintosh; Intel Mac OS X 10_15_7) AppleWebKit/605.1.15 (KHTML, like Gecko) Version/14.0 Safari/605.1.15" etag="NQ64asaO6tC33ommv4xA" version="13.11.0" type="github">
  <diagram id="oMxOpSHmPCSVeHv9OKRH" name="Page-1">
    <mxGraphModel dx="922" dy="544" grid="1" gridSize="10" guides="1" tooltips="1" connect="1" arrows="1" fold="1" page="1" pageScale="1" pageWidth="827" pageHeight="1169" math="0" shadow="0">
      <root>
        <mxCell id="0" />
        <mxCell id="1" parent="0" />
        <mxCell id="mmd15DCySFgk--r0cX6_-4" value="新增刊例配置" style="edgeStyle=orthogonalEdgeStyle;rounded=0;orthogonalLoop=1;jettySize=auto;html=1;" parent="1" source="mmd15DCySFgk--r0cX6_-1" target="mmd15DCySFgk--r0cX6_-3" edge="1">
          <mxGeometry x="0.2557" relative="1" as="geometry">
            <mxPoint as="offset" />
          </mxGeometry>
        </mxCell>
        <mxCell id="mmd15DCySFgk--r0cX6_-1" value="前端" style="shape=umlActor;verticalLabelPosition=bottom;verticalAlign=top;html=1;outlineConnect=0;fillColor=#f8cecc;strokeColor=#b85450;" parent="1" vertex="1">
          <mxGeometry x="195" y="30" width="30" height="60" as="geometry" />
        </mxCell>
        <mxCell id="mmd15DCySFgk--r0cX6_-9" style="edgeStyle=orthogonalEdgeStyle;rounded=0;orthogonalLoop=1;jettySize=auto;html=1;" parent="1" source="mmd15DCySFgk--r0cX6_-2" target="mmd15DCySFgk--r0cX6_-8" edge="1">
          <mxGeometry relative="1" as="geometry">
            <Array as="points">
              <mxPoint x="113" y="330" />
              <mxPoint x="210" y="330" />
            </Array>
          </mxGeometry>
        </mxCell>
        <mxCell id="mmd15DCySFgk--r0cX6_-2" value="添加新增/待修改资源位" style="rounded=1;whiteSpace=wrap;html=1;fillColor=#dae8fc;strokeColor=#6c8ebf;" parent="1" vertex="1">
          <mxGeometry x="52.5" y="250" width="120" height="60" as="geometry" />
        </mxCell>
        <mxCell id="mmd15DCySFgk--r0cX6_-6" style="edgeStyle=orthogonalEdgeStyle;rounded=0;orthogonalLoop=1;jettySize=auto;html=1;" parent="1" source="mmd15DCySFgk--r0cX6_-3" target="mmd15DCySFgk--r0cX6_-2" edge="1">
          <mxGeometry relative="1" as="geometry">
            <Array as="points">
              <mxPoint x="113" y="170" />
            </Array>
          </mxGeometry>
        </mxCell>
        <mxCell id="mmd15DCySFgk--r0cX6_-11" value="当季" style="edgeLabel;html=1;align=center;verticalAlign=middle;resizable=0;points=[];" parent="mmd15DCySFgk--r0cX6_-6" vertex="1" connectable="0">
          <mxGeometry x="0.2847" relative="1" as="geometry">
            <mxPoint as="offset" />
          </mxGeometry>
        </mxCell>
        <mxCell id="mmd15DCySFgk--r0cX6_-7" style="edgeStyle=orthogonalEdgeStyle;rounded=0;orthogonalLoop=1;jettySize=auto;html=1;" parent="1" source="mmd15DCySFgk--r0cX6_-3" target="mmd15DCySFgk--r0cX6_-5" edge="1">
          <mxGeometry relative="1" as="geometry">
            <Array as="points">
              <mxPoint x="318" y="170" />
            </Array>
          </mxGeometry>
        </mxCell>
        <mxCell id="mmd15DCySFgk--r0cX6_-12" value="下季" style="edgeLabel;html=1;align=center;verticalAlign=middle;resizable=0;points=[];" parent="mmd15DCySFgk--r0cX6_-7" vertex="1" connectable="0">
          <mxGeometry x="0.3621" y="1" relative="1" as="geometry">
            <mxPoint y="1" as="offset" />
          </mxGeometry>
        </mxCell>
        <mxCell id="mmd15DCySFgk--r0cX6_-3" value="当季刊例/下季刊例？" style="rhombus;whiteSpace=wrap;html=1;fillColor=#dae8fc;strokeColor=#6c8ebf;" parent="1" vertex="1">
          <mxGeometry x="170" y="140" width="87.5" height="60" as="geometry" />
        </mxCell>
        <mxCell id="mmd15DCySFgk--r0cX6_-10" style="edgeStyle=orthogonalEdgeStyle;rounded=0;orthogonalLoop=1;jettySize=auto;html=1;entryX=0.5;entryY=0;entryDx=0;entryDy=0;" parent="1" source="mmd15DCySFgk--r0cX6_-5" target="mmd15DCySFgk--r0cX6_-8" edge="1">
          <mxGeometry relative="1" as="geometry" />
        </mxCell>
        <mxCell id="mmd15DCySFgk--r0cX6_-5" value="复制当季已生效/未生效/未配置刊例信息" style="rounded=1;whiteSpace=wrap;html=1;fillColor=#dae8fc;strokeColor=#6c8ebf;" parent="1" vertex="1">
          <mxGeometry x="257.5" y="250" width="120" height="50" as="geometry" />
        </mxCell>
        <mxCell id="mmd15DCySFgk--r0cX6_-14" style="edgeStyle=orthogonalEdgeStyle;rounded=0;orthogonalLoop=1;jettySize=auto;html=1;" parent="1" source="mmd15DCySFgk--r0cX6_-8" target="mmd15DCySFgk--r0cX6_-13" edge="1">
          <mxGeometry relative="1" as="geometry" />
        </mxCell>
        <mxCell id="mmd15DCySFgk--r0cX6_-8" value="调整刊例明细" style="rounded=1;whiteSpace=wrap;html=1;fillColor=#dae8fc;strokeColor=#6c8ebf;" parent="1" vertex="1">
          <mxGeometry x="150" y="370" width="120" height="60" as="geometry" />
        </mxCell>
        <mxCell id="mmd15DCySFgk--r0cX6_-16" style="edgeStyle=orthogonalEdgeStyle;rounded=0;orthogonalLoop=1;jettySize=auto;html=1;entryX=0.5;entryY=0;entryDx=0;entryDy=0;" parent="1" source="mmd15DCySFgk--r0cX6_-13" target="mmd15DCySFgk--r0cX6_-15" edge="1">
          <mxGeometry relative="1" as="geometry" />
        </mxCell>
        <mxCell id="mmd15DCySFgk--r0cX6_-13" value="刊例配置及刊例明细数据入库" style="rounded=1;whiteSpace=wrap;html=1;fillColor=#dae8fc;strokeColor=#6c8ebf;" parent="1" vertex="1">
          <mxGeometry x="150" y="460" width="120" height="50" as="geometry" />
        </mxCell>
        <mxCell id="mmd15DCySFgk--r0cX6_-15" value="结束" style="ellipse;whiteSpace=wrap;html=1;fillColor=#f8cecc;strokeColor=#b85450;" parent="1" vertex="1">
          <mxGeometry x="172.5" y="530" width="75" height="70" as="geometry" />
        </mxCell>
        <mxCell id="mmd15DCySFgk--r0cX6_-23" value="" style="edgeStyle=orthogonalEdgeStyle;rounded=0;orthogonalLoop=1;jettySize=auto;html=1;" parent="1" source="mmd15DCySFgk--r0cX6_-17" target="mmd15DCySFgk--r0cX6_-22" edge="1">
          <mxGeometry relative="1" as="geometry" />
        </mxCell>
        <mxCell id="mmd15DCySFgk--r0cX6_-24" value="配置" style="edgeLabel;html=1;align=center;verticalAlign=middle;resizable=0;points=[];" parent="mmd15DCySFgk--r0cX6_-23" vertex="1" connectable="0">
          <mxGeometry x="0.0857" y="1" relative="1" as="geometry">
            <mxPoint as="offset" />
          </mxGeometry>
        </mxCell>
        <mxCell id="mmd15DCySFgk--r0cX6_-17" value="前端" style="shape=umlActor;verticalLabelPosition=bottom;verticalAlign=top;html=1;outlineConnect=0;fillColor=#f8cecc;strokeColor=#b85450;" parent="1" vertex="1">
          <mxGeometry x="605" y="30" width="30" height="60" as="geometry" />
        </mxCell>
        <mxCell id="mmd15DCySFgk--r0cX6_-27" style="edgeStyle=orthogonalEdgeStyle;rounded=0;orthogonalLoop=1;jettySize=auto;html=1;" parent="1" source="mmd15DCySFgk--r0cX6_-22" target="mmd15DCySFgk--r0cX6_-25" edge="1">
          <mxGeometry relative="1" as="geometry" />
        </mxCell>
        <mxCell id="mmd15DCySFgk--r0cX6_-22" value="调整刊例明细" style="rounded=1;whiteSpace=wrap;html=1;fillColor=#dae8fc;strokeColor=#6c8ebf;" parent="1" vertex="1">
          <mxGeometry x="560" y="160" width="125" height="50" as="geometry" />
        </mxCell>
        <mxCell id="mmd15DCySFgk--r0cX6_-28" style="edgeStyle=orthogonalEdgeStyle;rounded=0;orthogonalLoop=1;jettySize=auto;html=1;" parent="1" source="mmd15DCySFgk--r0cX6_-25" target="mmd15DCySFgk--r0cX6_-26" edge="1">
          <mxGeometry relative="1" as="geometry" />
        </mxCell>
        <mxCell id="mmd15DCySFgk--r0cX6_-25" value="刊例明细数据更新" style="rounded=1;whiteSpace=wrap;html=1;fillColor=#dae8fc;strokeColor=#6c8ebf;" parent="1" vertex="1">
          <mxGeometry x="562.5" y="260" width="120" height="60" as="geometry" />
        </mxCell>
        <mxCell id="mmd15DCySFgk--r0cX6_-26" value="结束" style="ellipse;whiteSpace=wrap;html=1;aspect=fixed;fillColor=#f8cecc;strokeColor=#b85450;" parent="1" vertex="1">
          <mxGeometry x="592.5" y="360" width="60" height="60" as="geometry" />
        </mxCell>
        <mxCell id="mmd15DCySFgk--r0cX6_-37" style="edgeStyle=orthogonalEdgeStyle;rounded=0;orthogonalLoop=1;jettySize=auto;html=1;entryX=0;entryY=0.5;entryDx=0;entryDy=0;" parent="1" source="mmd15DCySFgk--r0cX6_-31" target="mmd15DCySFgk--r0cX6_-32" edge="1">
          <mxGeometry relative="1" as="geometry" />
        </mxCell>
        <mxCell id="mmd15DCySFgk--r0cX6_-42" value="配置提交" style="edgeLabel;html=1;align=center;verticalAlign=middle;resizable=0;points=[];" parent="mmd15DCySFgk--r0cX6_-37" vertex="1" connectable="0">
          <mxGeometry x="0.1333" y="4" relative="1" as="geometry">
            <mxPoint as="offset" />
          </mxGeometry>
        </mxCell>
        <mxCell id="mmd15DCySFgk--r0cX6_-44" style="rounded=0;orthogonalLoop=1;jettySize=auto;html=1;entryX=0.5;entryY=0;entryDx=0;entryDy=0;" parent="1" source="mmd15DCySFgk--r0cX6_-31" target="mmd15DCySFgk--r0cX6_-35" edge="1">
          <mxGeometry relative="1" as="geometry" />
        </mxCell>
        <mxCell id="mmd15DCySFgk--r0cX6_-45" value="删除" style="edgeLabel;html=1;align=center;verticalAlign=middle;resizable=0;points=[];" parent="mmd15DCySFgk--r0cX6_-44" vertex="1" connectable="0">
          <mxGeometry x="-0.0278" relative="1" as="geometry">
            <mxPoint as="offset" />
          </mxGeometry>
        </mxCell>
        <mxCell id="mmd15DCySFgk--r0cX6_-31" value="待处理" style="rounded=1;whiteSpace=wrap;html=1;fillColor=#dae8fc;strokeColor=#6c8ebf;" parent="1" vertex="1">
          <mxGeometry x="90" y="702" width="110" height="50" as="geometry" />
        </mxCell>
        <mxCell id="mmd15DCySFgk--r0cX6_-38" style="edgeStyle=orthogonalEdgeStyle;rounded=0;orthogonalLoop=1;jettySize=auto;html=1;" parent="1" source="mmd15DCySFgk--r0cX6_-32" target="mmd15DCySFgk--r0cX6_-33" edge="1">
          <mxGeometry relative="1" as="geometry" />
        </mxCell>
        <mxCell id="mmd15DCySFgk--r0cX6_-39" value="达到有效期" style="edgeLabel;html=1;align=center;verticalAlign=middle;resizable=0;points=[];" parent="mmd15DCySFgk--r0cX6_-38" vertex="1" connectable="0">
          <mxGeometry x="-0.0213" y="-1" relative="1" as="geometry">
            <mxPoint as="offset" />
          </mxGeometry>
        </mxCell>
        <mxCell id="mmd15DCySFgk--r0cX6_-40" style="edgeStyle=orthogonalEdgeStyle;rounded=0;orthogonalLoop=1;jettySize=auto;html=1;entryX=0.5;entryY=0;entryDx=0;entryDy=0;" parent="1" source="mmd15DCySFgk--r0cX6_-32" target="mmd15DCySFgk--r0cX6_-31" edge="1">
          <mxGeometry relative="1" as="geometry">
            <Array as="points">
              <mxPoint x="348" y="662" />
              <mxPoint x="145" y="662" />
            </Array>
          </mxGeometry>
        </mxCell>
        <mxCell id="mmd15DCySFgk--r0cX6_-41" value="配置保存" style="edgeLabel;html=1;align=center;verticalAlign=middle;resizable=0;points=[];" parent="mmd15DCySFgk--r0cX6_-40" vertex="1" connectable="0">
          <mxGeometry x="0.1166" y="-2" relative="1" as="geometry">
            <mxPoint as="offset" />
          </mxGeometry>
        </mxCell>
        <mxCell id="mmd15DCySFgk--r0cX6_-32" value="未使用" style="rounded=1;whiteSpace=wrap;html=1;fillColor=#dae8fc;strokeColor=#6c8ebf;" parent="1" vertex="1">
          <mxGeometry x="290" y="702" width="116" height="50" as="geometry" />
        </mxCell>
        <mxCell id="mmd15DCySFgk--r0cX6_-46" style="edgeStyle=none;rounded=0;orthogonalLoop=1;jettySize=auto;html=1;entryX=0.5;entryY=0;entryDx=0;entryDy=0;" parent="1" source="mmd15DCySFgk--r0cX6_-33" target="mmd15DCySFgk--r0cX6_-36" edge="1">
          <mxGeometry relative="1" as="geometry" />
        </mxCell>
        <mxCell id="mmd15DCySFgk--r0cX6_-33" value="已使用" style="rounded=1;whiteSpace=wrap;html=1;fillColor=#dae8fc;strokeColor=#6c8ebf;" parent="1" vertex="1">
          <mxGeometry x="510" y="702" width="120" height="50" as="geometry" />
        </mxCell>
        <mxCell id="mmd15DCySFgk--r0cX6_-35" value="已删除" style="ellipse;whiteSpace=wrap;html=1;aspect=fixed;fillColor=#f8cecc;strokeColor=#b85450;" parent="1" vertex="1">
          <mxGeometry x="110" y="832" width="70" height="70" as="geometry" />
        </mxCell>
        <mxCell id="mmd15DCySFgk--r0cX6_-36" value="已过期" style="ellipse;whiteSpace=wrap;html=1;aspect=fixed;fillColor=#f8cecc;strokeColor=#b85450;" parent="1" vertex="1">
          <mxGeometry x="535" y="822" width="70" height="70" as="geometry" />
        </mxCell>
        <mxCell id="mmd15DCySFgk--r0cX6_-52" style="edgeStyle=none;rounded=0;orthogonalLoop=1;jettySize=auto;html=1;entryX=0;entryY=0.5;entryDx=0;entryDy=0;" parent="1" source="mmd15DCySFgk--r0cX6_-47" target="mmd15DCySFgk--r0cX6_-51" edge="1">
          <mxGeometry relative="1" as="geometry" />
        </mxCell>
        <mxCell id="mmd15DCySFgk--r0cX6_-55" value="达到有效期" style="edgeLabel;html=1;align=center;verticalAlign=middle;resizable=0;points=[];" parent="mmd15DCySFgk--r0cX6_-52" vertex="1" connectable="0">
          <mxGeometry x="-0.0714" y="-1" relative="1" as="geometry">
            <mxPoint as="offset" />
          </mxGeometry>
        </mxCell>
        <mxCell id="mmd15DCySFgk--r0cX6_-54" style="edgeStyle=none;rounded=0;orthogonalLoop=1;jettySize=auto;html=1;entryX=0;entryY=0;entryDx=0;entryDy=0;" parent="1" source="mmd15DCySFgk--r0cX6_-47" target="mmd15DCySFgk--r0cX6_-48" edge="1">
          <mxGeometry relative="1" as="geometry" />
        </mxCell>
        <mxCell id="mmd15DCySFgk--r0cX6_-60" value="资源位关闭" style="edgeLabel;html=1;align=center;verticalAlign=middle;resizable=0;points=[];" parent="mmd15DCySFgk--r0cX6_-54" vertex="1" connectable="0">
          <mxGeometry x="0.3574" y="-1" relative="1" as="geometry">
            <mxPoint as="offset" />
          </mxGeometry>
        </mxCell>
        <mxCell id="mmd15DCySFgk--r0cX6_-58" value="刊例配置删除" style="edgeStyle=none;rounded=0;orthogonalLoop=1;jettySize=auto;html=1;entryX=0.5;entryY=0;entryDx=0;entryDy=0;" parent="1" source="mmd15DCySFgk--r0cX6_-47" target="mmd15DCySFgk--r0cX6_-49" edge="1">
          <mxGeometry relative="1" as="geometry" />
        </mxCell>
        <mxCell id="mmd15DCySFgk--r0cX6_-47" value="未生效" style="rounded=1;whiteSpace=wrap;html=1;fillColor=#dae8fc;strokeColor=#6c8ebf;" parent="1" vertex="1">
          <mxGeometry x="140" y="1179" width="120" height="51" as="geometry" />
        </mxCell>
        <mxCell id="mmd15DCySFgk--r0cX6_-48" value="已关闭" style="ellipse;whiteSpace=wrap;html=1;aspect=fixed;fillColor=#f8cecc;strokeColor=#b85450;" parent="1" vertex="1">
          <mxGeometry x="270" y="1300" width="80" height="80" as="geometry" />
        </mxCell>
        <mxCell id="mmd15DCySFgk--r0cX6_-49" value="已删除" style="ellipse;whiteSpace=wrap;html=1;aspect=fixed;fillColor=#f8cecc;strokeColor=#b85450;" parent="1" vertex="1">
          <mxGeometry x="100" y="1300" width="80" height="80" as="geometry" />
        </mxCell>
        <mxCell id="mmd15DCySFgk--r0cX6_-50" value="已失效" style="ellipse;whiteSpace=wrap;html=1;aspect=fixed;fillColor=#f8cecc;strokeColor=#b85450;" parent="1" vertex="1">
          <mxGeometry x="474" y="1310" width="80" height="80" as="geometry" />
        </mxCell>
        <mxCell id="mmd15DCySFgk--r0cX6_-53" style="edgeStyle=none;rounded=0;orthogonalLoop=1;jettySize=auto;html=1;entryX=1;entryY=0;entryDx=0;entryDy=0;" parent="1" source="mmd15DCySFgk--r0cX6_-51" target="mmd15DCySFgk--r0cX6_-48" edge="1">
          <mxGeometry relative="1" as="geometry" />
        </mxCell>
        <mxCell id="mmd15DCySFgk--r0cX6_-62" value="资源位关闭" style="edgeLabel;html=1;align=center;verticalAlign=middle;resizable=0;points=[];" parent="mmd15DCySFgk--r0cX6_-53" vertex="1" connectable="0">
          <mxGeometry x="0.2518" y="1" relative="1" as="geometry">
            <mxPoint as="offset" />
          </mxGeometry>
        </mxCell>
        <mxCell id="mmd15DCySFgk--r0cX6_-56" style="edgeStyle=none;rounded=0;orthogonalLoop=1;jettySize=auto;html=1;exitX=0.75;exitY=1;exitDx=0;exitDy=0;entryX=0.5;entryY=0;entryDx=0;entryDy=0;" parent="1" source="mmd15DCySFgk--r0cX6_-51" target="mmd15DCySFgk--r0cX6_-50" edge="1">
          <mxGeometry relative="1" as="geometry">
            <Array as="points">
              <mxPoint x="480" y="1280" />
            </Array>
          </mxGeometry>
        </mxCell>
        <mxCell id="mmd15DCySFgk--r0cX6_-57" value="当季新增同一资源位刊例达到有效期" style="edgeLabel;html=1;align=center;verticalAlign=middle;resizable=0;points=[];" parent="mmd15DCySFgk--r0cX6_-56" vertex="1" connectable="0">
          <mxGeometry x="-0.1607" y="2" relative="1" as="geometry">
            <mxPoint as="offset" />
          </mxGeometry>
        </mxCell>
        <mxCell id="mmd15DCySFgk--r0cX6_-51" value="已生效" style="rounded=1;whiteSpace=wrap;html=1;fillColor=#dae8fc;strokeColor=#6c8ebf;" parent="1" vertex="1">
          <mxGeometry x="354" y="1179" width="120" height="60" as="geometry" />
        </mxCell>
      </root>
    </mxGraphModel>
  </diagram>
</mxfile>
